<mxfile host="Electron" modified="2023-04-23T04:47:02.010Z" agent="Mozilla/5.0 (Windows NT 10.0; Win64; x64) AppleWebKit/537.36 (KHTML, like Gecko) draw.io/21.2.1 Chrome/112.0.5615.87 Electron/24.1.2 Safari/537.36" etag="QDu_T8k4s19ZzGf82Sy5" version="21.2.1" type="device" pages="2">
  <diagram id="C5RBs43oDa-KdzZeNtuy" name="Page-1">
    <mxGraphModel dx="2160" dy="1290" grid="1" gridSize="10" guides="1" tooltips="1" connect="1" arrows="1" fold="1" page="1" pageScale="1" pageWidth="827" pageHeight="1169" math="0" shadow="0">
      <root>
        <mxCell id="WIyWlLk6GJQsqaUBKTNV-0" />
        <mxCell id="WIyWlLk6GJQsqaUBKTNV-1" parent="WIyWlLk6GJQsqaUBKTNV-0" />
        <mxCell id="WIyWlLk6GJQsqaUBKTNV-2" value="" style="rounded=0;html=1;jettySize=auto;orthogonalLoop=1;fontSize=11;endArrow=block;endFill=0;endSize=8;strokeWidth=1;shadow=0;labelBackgroundColor=none;edgeStyle=orthogonalEdgeStyle;" parent="WIyWlLk6GJQsqaUBKTNV-1" edge="1">
          <mxGeometry relative="1" as="geometry">
            <mxPoint x="220" y="120" as="sourcePoint" />
            <mxPoint x="220" y="170" as="targetPoint" />
          </mxGeometry>
        </mxCell>
        <mxCell id="_TBCf2ZGx4OVlUD9fVIi-0" value="Begin" style="ellipse;whiteSpace=wrap;html=1;" parent="WIyWlLk6GJQsqaUBKTNV-1" vertex="1">
          <mxGeometry x="160" y="70" width="120" height="50" as="geometry" />
        </mxCell>
        <mxCell id="_TBCf2ZGx4OVlUD9fVIi-3" value="" style="edgeStyle=orthogonalEdgeStyle;rounded=0;orthogonalLoop=1;jettySize=auto;html=1;" parent="WIyWlLk6GJQsqaUBKTNV-1" source="_TBCf2ZGx4OVlUD9fVIi-1" target="_TBCf2ZGx4OVlUD9fVIi-2" edge="1">
          <mxGeometry relative="1" as="geometry" />
        </mxCell>
        <mxCell id="_TBCf2ZGx4OVlUD9fVIi-1" value="Defining an address of RCC_CFGR and a basic address of GPIOA" style="rounded=1;whiteSpace=wrap;html=1;" parent="WIyWlLk6GJQsqaUBKTNV-1" vertex="1">
          <mxGeometry x="120" y="150" width="200" height="60" as="geometry" />
        </mxCell>
        <mxCell id="_TBCf2ZGx4OVlUD9fVIi-5" value="" style="edgeStyle=orthogonalEdgeStyle;rounded=0;orthogonalLoop=1;jettySize=auto;html=1;" parent="WIyWlLk6GJQsqaUBKTNV-1" source="_TBCf2ZGx4OVlUD9fVIi-2" target="_TBCf2ZGx4OVlUD9fVIi-4" edge="1">
          <mxGeometry relative="1" as="geometry" />
        </mxCell>
        <mxCell id="_TBCf2ZGx4OVlUD9fVIi-2" value="Defining a pointer to point the address of RCC_CFGR" style="whiteSpace=wrap;html=1;rounded=1;" parent="WIyWlLk6GJQsqaUBKTNV-1" vertex="1">
          <mxGeometry x="120" y="240" width="200" height="60" as="geometry" />
        </mxCell>
        <mxCell id="_TBCf2ZGx4OVlUD9fVIi-7" value="" style="edgeStyle=orthogonalEdgeStyle;rounded=0;orthogonalLoop=1;jettySize=auto;html=1;" parent="WIyWlLk6GJQsqaUBKTNV-1" source="_TBCf2ZGx4OVlUD9fVIi-4" target="_TBCf2ZGx4OVlUD9fVIi-6" edge="1">
          <mxGeometry relative="1" as="geometry" />
        </mxCell>
        <mxCell id="_TBCf2ZGx4OVlUD9fVIi-4" value="Configing two bit 21 and 22 of RCC_CFGR at HIS mode" style="whiteSpace=wrap;html=1;rounded=1;" parent="WIyWlLk6GJQsqaUBKTNV-1" vertex="1">
          <mxGeometry x="120" y="330" width="200" height="60" as="geometry" />
        </mxCell>
        <mxCell id="_TBCf2ZGx4OVlUD9fVIi-9" value="" style="edgeStyle=orthogonalEdgeStyle;rounded=0;orthogonalLoop=1;jettySize=auto;html=1;" parent="WIyWlLk6GJQsqaUBKTNV-1" source="_TBCf2ZGx4OVlUD9fVIi-6" target="_TBCf2ZGx4OVlUD9fVIi-8" edge="1">
          <mxGeometry relative="1" as="geometry" />
        </mxCell>
        <mxCell id="_TBCf2ZGx4OVlUD9fVIi-6" value="Configing three bits 24 to 26 of RCC_CFGR at division by 4 mode" style="whiteSpace=wrap;html=1;rounded=1;" parent="WIyWlLk6GJQsqaUBKTNV-1" vertex="1">
          <mxGeometry x="120" y="430" width="200" height="60" as="geometry" />
        </mxCell>
        <mxCell id="_TBCf2ZGx4OVlUD9fVIi-11" value="" style="edgeStyle=orthogonalEdgeStyle;rounded=0;orthogonalLoop=1;jettySize=auto;html=1;" parent="WIyWlLk6GJQsqaUBKTNV-1" source="_TBCf2ZGx4OVlUD9fVIi-8" target="_TBCf2ZGx4OVlUD9fVIi-10" edge="1">
          <mxGeometry relative="1" as="geometry" />
        </mxCell>
        <mxCell id="_TBCf2ZGx4OVlUD9fVIi-8" value="To enable clock pusle for GPIOA" style="whiteSpace=wrap;html=1;rounded=1;" parent="WIyWlLk6GJQsqaUBKTNV-1" vertex="1">
          <mxGeometry x="120" y="520" width="200" height="60" as="geometry" />
        </mxCell>
        <mxCell id="_TBCf2ZGx4OVlUD9fVIi-13" value="" style="edgeStyle=orthogonalEdgeStyle;rounded=0;orthogonalLoop=1;jettySize=auto;html=1;" parent="WIyWlLk6GJQsqaUBKTNV-1" source="_TBCf2ZGx4OVlUD9fVIi-10" target="_TBCf2ZGx4OVlUD9fVIi-12" edge="1">
          <mxGeometry relative="1" as="geometry" />
        </mxCell>
        <mxCell id="_TBCf2ZGx4OVlUD9fVIi-10" value="Configuring the eighth bit of it at alternate mode" style="whiteSpace=wrap;html=1;rounded=1;" parent="WIyWlLk6GJQsqaUBKTNV-1" vertex="1">
          <mxGeometry x="120" y="620" width="200" height="60" as="geometry" />
        </mxCell>
        <mxCell id="_TBCf2ZGx4OVlUD9fVIi-15" value="" style="edgeStyle=orthogonalEdgeStyle;rounded=0;orthogonalLoop=1;jettySize=auto;html=1;" parent="WIyWlLk6GJQsqaUBKTNV-1" source="_TBCf2ZGx4OVlUD9fVIi-12" target="_TBCf2ZGx4OVlUD9fVIi-14" edge="1">
          <mxGeometry relative="1" as="geometry" />
        </mxCell>
        <mxCell id="_TBCf2ZGx4OVlUD9fVIi-12" value="Defining an address of GPIOx_AFRH" style="whiteSpace=wrap;html=1;rounded=1;" parent="WIyWlLk6GJQsqaUBKTNV-1" vertex="1">
          <mxGeometry x="120" y="720" width="200" height="60" as="geometry" />
        </mxCell>
        <mxCell id="_TBCf2ZGx4OVlUD9fVIi-14" value="To set up the first&amp;nbsp; bit of it at AF0 mode" style="whiteSpace=wrap;html=1;rounded=1;" parent="WIyWlLk6GJQsqaUBKTNV-1" vertex="1">
          <mxGeometry x="120" y="810" width="200" height="50" as="geometry" />
        </mxCell>
        <mxCell id="_TBCf2ZGx4OVlUD9fVIi-16" value="End" style="ellipse;whiteSpace=wrap;html=1;" parent="WIyWlLk6GJQsqaUBKTNV-1" vertex="1">
          <mxGeometry x="160" y="890" width="120" height="50" as="geometry" />
        </mxCell>
        <mxCell id="_TBCf2ZGx4OVlUD9fVIi-17" value="" style="endArrow=classic;html=1;rounded=0;exitX=0.5;exitY=1;exitDx=0;exitDy=0;entryX=0.5;entryY=0;entryDx=0;entryDy=0;" parent="WIyWlLk6GJQsqaUBKTNV-1" source="_TBCf2ZGx4OVlUD9fVIi-14" target="_TBCf2ZGx4OVlUD9fVIi-16" edge="1">
          <mxGeometry width="50" height="50" relative="1" as="geometry">
            <mxPoint x="390" y="780" as="sourcePoint" />
            <mxPoint x="440" y="730" as="targetPoint" />
          </mxGeometry>
        </mxCell>
      </root>
    </mxGraphModel>
  </diagram>
  <diagram id="v02jRI8gEpYSiY4LJ1od" name="Page-2">
    <mxGraphModel dx="864" dy="516" grid="1" gridSize="10" guides="1" tooltips="1" connect="1" arrows="1" fold="1" page="1" pageScale="1" pageWidth="850" pageHeight="1100" math="0" shadow="0">
      <root>
        <mxCell id="0" />
        <mxCell id="1" parent="0" />
      </root>
    </mxGraphModel>
  </diagram>
</mxfile>
